<svg width="216" height="41" viewBox="0 0 216 41" fill="none" xmlns="http://www.w3.org/2000/svg">
<path d="M67.4516 8.62C61.502 8.62 57.9108 11.293 57.4552 15.451V16.099H62.1988C62.44 13.642 64.2356 12.454 67.3712 12.454C70.5068 12.454 72.0612 13.642 72.0612 16.558V17.098L64.1552 18.097C59.7064 18.664 56.3028 20.662 56.3028 25.144C56.3028 29.41 59.7064 31.894 64.6108 31.894C69.006 31.894 71.0428 30.301 71.9004 28.789H72.2488V31.462H76.9388V17.125C76.9388 11.293 73.3744 8.62 67.4516 8.62ZM72.0612 21.958C72.0612 26.089 69.2204 28.006 65.6024 28.006C62.976 28.006 61.368 26.845 61.368 24.901C61.368 22.984 62.8956 22.066 65.254 21.742L72.0612 20.824V21.958V21.958Z" fill="white"/>
<path d="M85.3272 6.13599V9.13299H80.2352V13.102H85.3272V31.489H90.4192V13.102H96.4492V9.13299H90.4192V4.51599L90.7676 4.16499H96.744V0.330994H91.4376C87.5784 0.330994 85.3272 2.32899 85.3272 6.13599Z" fill="white"/>
<path d="M105.24 11.725H104.891V9.16H100.014V31.489H105.106V19.528C105.106 15.316 106.767 13.291 110.546 13.291H113.628V9.052H110.546C107.491 9.052 106.044 10.105 105.24 11.725Z" fill="white"/>
<path d="M122.258 9.133H117.166V31.462H122.258V9.133Z" fill="white"/>
<path d="M143.108 11.752H142.76C141.205 9.484 138.713 8.647 135.818 8.647C130.217 8.647 125.768 12.319 125.768 19.879C125.768 27.412 130.217 31.084 135.818 31.084C138.659 31.084 141.071 30.274 142.679 28.114H143.028V30.463C143.028 34.432 141.205 36.646 137.051 36.646C132.924 36.646 131.236 34.567 131.021 32.461H126.331V33.109C126.706 37.159 130.271 40.615 137.212 40.615C144.287 40.615 148.093 36.916 148.093 29.95V9.106H143.108V11.752ZM137.051 27.061C133.326 27.061 130.914 24.496 130.914 19.906C130.914 15.289 133.353 12.724 137.051 12.724C140.75 12.724 143.162 15.289 143.162 19.906C143.162 24.496 140.75 27.061 137.051 27.061Z" fill="white"/>
<path d="M166.906 21.634C166.906 25.954 164.36 27.844 161.064 27.844C158.062 27.844 156.454 26.386 156.454 23.308V9.133H151.362V23.74C151.362 29.248 154.552 31.948 159.778 31.948C162.752 31.948 165.218 31.084 166.746 29.005H167.094V31.462H171.998V9.133H166.906V21.634V21.634Z" fill="white"/>
<path d="M180.762 9.133H175.67V31.462H180.762V9.133Z" fill="white"/>
<path d="M189.526 0.330994H184.434V31.462H189.526V0.330994Z" fill="white"/>
<path d="M210.215 0.330994V11.59H209.867C208.232 9.48399 205.766 8.67399 202.899 8.67399C197.244 8.67399 192.742 12.481 192.742 20.311C192.742 28.141 197.217 31.975 202.899 31.975C205.847 31.975 208.339 31.138 209.974 28.897H210.322V31.489H215.28V0.330994H210.215ZM204.158 27.925C200.406 27.925 197.887 25.225 197.887 20.311C197.887 15.424 200.406 12.724 204.158 12.724C207.91 12.724 210.403 15.424 210.403 20.311C210.403 25.225 207.91 27.925 204.158 27.925Z" fill="white"/>
<path d="M178.216 0.330994C176.581 0.330994 175.268 1.65399 175.268 3.30099C175.268 4.94799 176.581 6.27099 178.216 6.27099C179.851 6.27099 181.164 4.94799 181.164 3.30099C181.137 1.68099 179.824 0.330994 178.216 0.330994Z" fill="white"/>
<path d="M119.712 0.330994C118.077 0.330994 116.764 1.65399 116.764 3.30099C116.764 4.94799 118.077 6.27099 119.712 6.27099C121.346 6.27099 122.66 4.94799 122.66 3.30099C122.633 1.68099 121.32 0.330994 119.712 0.330994Z" fill="white"/>
<path d="M42.1524 32.407L28.1896 4.21901C25.6436 -0.937993 18.3272 -0.937993 15.7812 4.21901L1.73798 32.38C0.585581 34.702 0.451581 37.159 1.04118 39.373C1.41638 40.75 3.23878 41.074 4.06958 39.94C8.14318 34.486 14.6288 30.949 21.9184 30.949C29.2348 30.949 35.6936 34.486 39.7672 39.967C40.6248 41.101 42.4204 40.777 42.7956 39.4C43.4388 37.186 43.3048 34.729 42.1524 32.407ZM28.2432 22.984C28.2432 24.28 27.198 25.306 25.9384 25.306H17.9788C16.6924 25.306 15.674 24.253 15.674 22.984V14.965C15.674 13.669 16.7192 12.643 17.9788 12.643H25.9384C27.2248 12.643 28.2432 13.696 28.2432 14.965V22.984Z" fill="#F4068F"/>
</svg>
